<svg width="48" height="48" viewBox="0 0 48 48" fill="none" xmlns="http://www.w3.org/2000/svg">
<path fill-rule="evenodd" clip-rule="evenodd" d="M10.756 8.38651C10.5256 6.31323 12.1485 4.5 14.2345 4.5H33.7655C35.8515 4.5 37.4744 6.31323 37.2441 8.38651L33.6885 40.3865C33.4916 42.159 31.9934 43.5 30.2099 43.5H17.7901C16.0067 43.5 14.5085 42.159 14.3115 40.3865L10.756 8.38651ZM14.2345 7.5C13.9365 7.5 13.7047 7.75903 13.7376 8.05522L14.8496 18.0627C16.1816 17.5398 17.9527 17.1 20 17.1C22.3061 17.1 23.5314 17.6442 24.6156 18.1321L24.6408 18.1435C25.5457 18.5508 26.3217 18.9 28 18.9C30.3034 18.9 32.2025 18.196 33.192 17.6892L34.2624 8.05522C34.2953 7.75903 34.0635 7.5 33.7655 7.5H14.2345ZM32.8138 21.0929C31.5 21.5423 29.8466 21.9 28 21.9C25.6939 21.9 24.4686 21.3558 23.3845 20.8679L23.3592 20.8565C22.4543 20.4492 21.6783 20.1 20 20.1C17.8592 20.1 16.152 20.708 15.1968 21.1875L17.2932 40.0552C17.3213 40.3084 17.5353 40.5 17.7901 40.5H30.2099C30.4647 40.5 30.6787 40.3084 30.7069 40.0552L32.8138 21.0929Z" fill="#1A1A1A"/>
</svg>
