<svg width="21" height="20" viewBox="0 0 21 20" fill="none" xmlns="http://www.w3.org/2000/svg">
<path fill-rule="evenodd" clip-rule="evenodd" d="M11.4092 2.02695C11.9952 2.0316 12.5357 2.34364 12.8327 2.84878L13.2958 3.63644L13.7233 4.39076L14.6034 4.38376L15.5039 4.39103C16.0899 4.39568 16.6303 4.70772 16.9273 5.21286L17.3905 6.00051L17.8344 6.78396C18.1234 7.29375 18.1234 7.91783 17.8344 8.42762L17.3839 9.22254L16.9432 9.9717C16.9451 9.97478 16.9469 9.97786 16.9487 9.98094L17.4119 10.7686L17.8558 11.552C18.1447 12.0618 18.1447 12.6859 17.8558 13.1957L17.4052 13.9906L16.9487 14.7668C16.6517 15.2719 16.1112 15.584 15.5252 15.5886L14.6115 15.5959L13.7441 15.5889L13.2988 16.3746L12.8423 17.1508C12.5452 17.6559 12.0048 17.968 11.4188 17.9726L10.5051 17.9799L9.60463 17.9726C9.01866 17.968 8.47819 17.6559 8.18117 17.1508L7.71803 16.3631L7.27965 15.5895L6.37728 15.5967L5.47682 15.5894C4.89085 15.5847 4.35038 15.2727 4.05336 14.7676L3.59022 13.9799L3.14628 13.1965C2.85733 12.6867 2.85733 12.0626 3.14628 11.5528L3.59684 10.7579L4.048 9.99083L3.60161 9.23167L3.15767 8.44822C2.86872 7.93843 2.86872 7.31435 3.15767 6.80456L3.60824 6.00964L4.06476 5.23345C4.36177 4.72832 4.90225 4.41628 5.48821 4.41163L6.40193 4.40436L7.26935 4.41136L7.71509 3.62496L8.17161 2.84878C8.46863 2.34365 9.0091 2.0316 9.59507 2.02695L10.5088 2.01968L11.4092 2.02695ZM11.3884 13.2095L11.8246 13.9791L11.8312 13.9906L12.2876 14.7668C12.2888 14.7687 12.2899 14.7707 12.291 14.7726L11.8586 15.5355L11.4056 16.306L10.5117 16.3131L9.61788 16.306L9.1648 15.5355L8.72404 14.7578L8.82741 14.5755L9.17088 13.9913L9.1775 13.9799L9.51163 13.3904L9.61788 13.2097L9.87375 13.2076L10.4835 13.2125H10.4968L11.1281 13.2075L11.3884 13.2095ZM12.1674 10.1854L11.8312 10.7572L11.8246 10.7687L11.4975 11.3457L11.384 11.5387L11.1281 11.5408L10.5183 11.5359H10.5051L9.87378 11.5409L9.61364 11.5389L9.17751 10.7694L9.17088 10.7579L8.73121 10.0102L9.18227 9.24309L9.1889 9.23162L9.6281 8.45674L10.4955 8.46363L10.5088 8.46363L11.3757 8.45674L11.8032 9.21102L11.8098 9.22249L12.2663 9.99873L12.2698 10.0047L12.1674 10.1854ZM15.1834 9.1564L14.6248 9.15196H14.6115L14.0316 9.15657L13.7195 9.15408L13.2837 8.38535L13.2771 8.37387L12.8376 7.62635L13.2891 6.85841L13.2958 6.84694L13.7398 6.06354L13.7433 6.05731L14.5968 6.05052L15.4906 6.05763L15.9437 6.82816L16.3845 7.60579L15.9437 8.38343L15.4906 9.15395L15.1834 9.1564ZM13.7415 13.9222L14.6181 13.9291L15.512 13.922L15.9651 13.1515L16.4058 12.3739L15.9651 11.5962L15.512 10.8257L15.1834 10.8231L14.5902 10.8278L14.0316 10.8233L13.7243 10.8257L13.6108 11.0187L13.2772 11.6073L12.9409 12.1791L12.8388 12.3591L12.8423 12.3649L13.3054 13.1526L13.7415 13.9222ZM8.16315 12.3895L8.06823 12.557L7.72474 13.1411L7.71812 13.1526L7.38399 13.7421L7.27774 13.9228L6.38389 13.9299L5.49007 13.9228L5.03699 13.1523L4.59623 12.3746L5.037 11.597L5.48148 10.8411L5.48821 10.8412L6.38868 10.8483H6.40192L7.26897 10.8414L7.69655 11.5958L7.70318 11.6073L8.15961 12.3835L8.16315 12.3895ZM7.2577 9.15961L6.39053 9.15272H6.37728L5.49276 9.15975L5.04839 8.40402L4.60763 7.62639L5.04839 6.84876L5.50146 6.07823L6.3953 6.07112L7.27278 6.0781L7.70856 6.84694L7.71518 6.85841L8.15473 7.60593L7.70318 8.37387L7.69655 8.38535L7.2577 9.15961ZM10.4835 6.76865L9.61648 6.77554L9.1889 6.02117L9.18227 6.00969L8.72584 5.23345L8.72243 5.22768L9.15524 4.46408L9.60832 3.69355L10.5022 3.68644L11.396 3.69355L11.8491 4.46408L12.2699 5.20662L12.2663 5.21286L11.8098 5.98909L11.8032 6.00057L11.3639 6.77554L10.4968 6.76865H10.4835Z" fill="#1A1A1A"/>
</svg>
