<svg width="20" height="20" viewBox="0 0 20 20" fill="none" xmlns="http://www.w3.org/2000/svg">
<path fill-rule="evenodd" clip-rule="evenodd" d="M3.41149 1.68671C3.73822 1.79804 3.91284 2.15316 3.8015 2.47989C3.53649 3.25764 3.70496 3.67227 3.89658 3.91432C4.12359 4.20108 4.48494 4.37022 4.75897 4.45742C5.11989 4.57228 5.24629 4.89807 5.25926 5.10952C5.27226 5.32126 5.18499 5.67074 4.82534 5.8235C3.49546 6.38838 3.02001 7.21433 2.93247 7.94844C2.83942 8.72874 3.16926 9.516 3.64719 9.98353C3.89394 10.2249 3.89829 10.6206 3.65691 10.8674C3.41553 11.1141 3.01983 11.1185 2.77308 10.8771C2.03927 10.1592 1.54881 8.99503 1.69126 7.80043C1.80898 6.81322 2.34949 5.86931 3.41245 5.16498C3.23779 5.03652 3.06688 4.88013 2.91651 4.69018C2.4265 4.0712 2.23542 3.20038 2.61831 2.07672C2.72964 1.74999 3.08476 1.57538 3.41149 1.68671ZM5.68862 2.77809C5.84028 2.46802 6.21459 2.3396 6.52467 2.49127C7.53094 2.98345 8.22059 3.92337 8.29668 4.96013C8.37586 6.03895 7.78284 7.07464 6.52454 7.69014C6.30956 7.79529 6.13264 7.88256 5.98375 7.9762C5.834 8.07038 5.7595 8.14304 5.72479 8.19396C5.70235 8.2269 5.69135 8.25458 5.69863 8.31511C5.70841 8.39646 5.75664 8.55582 5.93306 8.81472C6.12743 9.09997 6.05376 9.48878 5.76852 9.68315C5.48327 9.87753 5.09446 9.80386 4.90008 9.51861C4.65989 9.16613 4.49983 8.816 4.45756 8.46428C4.41278 8.09174 4.50597 7.76278 4.69186 7.49001C4.8655 7.23523 5.10348 7.05315 5.31829 6.91806C5.529 6.78554 5.76266 6.67126 5.96134 6.57409L5.96136 6.57408L5.96137 6.57408L5.97529 6.56727C6.84599 6.14137 7.08637 5.54666 7.05004 5.05163C7.01062 4.51453 6.63584 3.93716 5.97545 3.61414C5.66537 3.46248 5.53695 3.08817 5.68862 2.77809ZM5.18543 14.7741C5.35483 15.1969 5.68992 15.532 6.11276 15.7014L6.42696 15.8273C6.58767 15.8917 6.77146 15.85 6.88864 15.7225L8.37929 14.1012L8.10647 13.5555C7.9452 13.233 7.68366 12.9714 7.36112 12.8102L6.76711 12.5132L5.16254 13.9966C5.03572 14.1139 4.99438 14.2972 5.05861 14.4575L5.18543 14.7741ZM11.3715 10.8466L9.58621 12.7884C9.26284 12.1533 8.7443 11.6384 8.10647 11.3194L8.07519 11.3038L9.41311 10.0669L11.3715 10.8466ZM10.7694 8.81295L12.5788 9.53335L13.9221 8.07231L12.2784 7.41787L10.7694 8.81295ZM15.7493 6.08494L15.1294 6.75909L13.6346 6.16395L14.7738 5.11078C14.9052 4.98926 15.1092 4.99325 15.2358 5.11984L15.7396 5.62363C15.8659 5.74996 15.8702 5.95342 15.7493 6.08494ZM5.49296 17.2486C4.64727 16.9098 3.97709 16.2396 3.6383 15.3939L3.51148 15.0773C3.19034 14.2757 3.39703 13.3591 4.03111 12.7728L13.6424 3.88699C14.431 3.15785 15.6548 3.18184 16.4143 3.94132L16.9181 4.44512C17.676 5.20308 17.7017 6.42385 16.9762 7.21295L8.11557 16.8505C7.52967 17.4878 6.61074 17.6964 5.80715 17.3744L5.49296 17.2486Z" fill="#1A1A1A"/>
</svg>
